<?xml version="1.0" standalone="no"?>
<!DOCTYPE svg PUBLIC "-//W3C//DTD SVG 20010904//EN"
 "http://www.w3.org/TR/2001/REC-SVG-20010904/DTD/svg10.dtd">
<svg version="1.0" xmlns="http://www.w3.org/2000/svg"
 width="76.000000pt" height="60.000000pt" viewBox="0 0 76.000000 60.000000"
 preserveAspectRatio="xMidYMid meet">

<g transform="translate(0.000000,60.000000) scale(0.100000,-0.100000)"
fill="#000000" stroke="none">
<path d="M414 358 c-155 -156 -174 -180 -174 -218 0 -18 33 9 151 121 154 146
182 182 177 225 -3 22 -21 7 -154 -128z"/>
<path d="M427 232 l-68 -69 45 -41 c28 -26 55 -42 71 -42 34 0 32 10 -10 50
l-35 34 36 37 c28 29 35 43 32 68 l-3 32 -68 -69z"/>
</g>
</svg>
