<?xml version="1.0" encoding="UTF-8"?>
<svg width="200pt" height="200pt" preserveAspectRatio="xMidYMid" version="1.0" viewBox="0 0 150 150" xmlns="http://www.w3.org/2000/svg">
 <desc id="Logo de Finaryx"></desc>
 <g transform="matrix(.18319 0 0 -.19183 .94422 130.08)">
  <path d="m414 358c-155-156-174-180-174-218 0-18 33 9 151 121 154 146 182 182 177 225-3 22-21 7-154-128z"/>
  <path d="m427 232-68-69 45-41c28-26 55-42 71-42 34 0 32 10-10 50l-35 34 36 37c28 29 35 43 32 68l-3 32z"/>
 </g>
</svg>
